<?xml version="1.0" encoding="utf-8" ?><svg xmlns="http://www.w3.org/2000/svg" xmlns:xlink="http://www.w3.org/1999/xlink" width="1760" height="1760" viewBox="0 0 1760 1760"><path d="M0 0L1760 0L1760 1760L0 1760L0 0Z"/><path fill="#8A55CA" d="M548.911 627.253C545.903 622.088 535.367 607.105 535.666 602.6C536.46 600.731 538.408 596.433 541.03 596.194C560.776 594.394 584.629 598.612 604.192 596.13C625.045 593.484 660.3 590.566 679.459 581.742C749.117 549.659 814.587 509.172 891.206 495.251C924.488 490.813 961.811 490.395 995.052 494.655C1034.93 499.901 1070.68 518.936 1103.95 540.798C1125.96 555.26 1126.48 556.699 1152.2 550.944C1183.64 543.909 1216.9 565.247 1247.36 541.352C1256.15 534.456 1267.14 529.1 1273.49 517.748C1286.47 497.179 1290.22 471.927 1285.72 448.128C1279.01 412.59 1246.44 394.724 1221.26 373.795C1196.93 353.578 1172.18 328.313 1165.4 296.872C1151.18 230.962 1182.94 158.891 1256.58 213.263C1278.72 229.664 1307.04 235.476 1333.16 243.283C1336.05 244.208 1338.07 246.083 1339.53 248.701L1339.6 251.831C1336.7 254.459 1319.36 253.57 1311.68 254.912L1312.57 255.597C1322.36 263.02 1335.83 263.536 1340.1 269.017C1337.93 275.692 1281.21 272.035 1271.49 273.5C1262.94 274.789 1255.15 275.704 1246.74 278.051C1234.21 279.254 1219.06 289.269 1227.14 303.542C1245.85 336.597 1286.83 351.328 1310.78 382.569C1344.5 426.564 1349.06 479.346 1328.57 530.223C1308.03 579.749 1272.6 616.442 1227.11 644.253C1217.23 650.297 1193.35 663.933 1186.68 672.033C1185.69 682.837 1187.23 697.302 1187.39 708.24C1188.92 815.529 1082.57 849.48 993.597 851.523C981.75 851.795 967.345 851.033 955.728 853.071C949.7 854.369 943.808 869.08 939.694 873.806C929.82 885.151 913.168 888.06 903.538 898.312C897.079 905.19 887.234 921.519 883.71 930.22L884.467 931.874C889.981 933.174 906.386 924.494 913.324 922.787C943.687 915.318 967.143 904.689 998.18 896.499C1028.03 888.622 1081.95 863.208 1112.17 875.06C1128.89 881.619 1143.91 914.982 1154.83 929.076C1162.75 939.463 1172.1 959.293 1180.45 968.051C1190.68 964.142 1199.48 959.476 1209.4 954.923C1224.41 948.099 1239.46 941.353 1254.54 934.684C1261.12 931.773 1274.02 925.525 1280.55 924.347C1284.61 923.612 1288.8 924.138 1292.56 925.854C1305.74 931.766 1312.34 950.157 1305.38 962.978C1301.05 970.955 1289.9 974.74 1281.87 978.164C1284.48 984.328 1287.01 990.286 1289.38 996.546C1282.76 999.578 1267.9 1004.19 1265.56 1009.41C1265.33 1016.06 1269.31 1021.29 1272.69 1027.23C1279.04 1023.76 1289.45 1017.61 1296.07 1016.09C1300.53 1017.72 1307.49 1036.63 1309.72 1042.09C1314.66 1054.16 1324.05 1068.76 1326.4 1081.16C1323.57 1084.64 1292.91 1096.21 1285.15 1100.64C1279.34 1091.53 1275.41 1078.12 1269.66 1067.45C1259.2 1071.82 1249.45 1076.05 1239.63 1081.88C1243.21 1090.45 1250.9 1107.39 1253.05 1115.49C1238.99 1121.23 1226.28 1127.81 1211.91 1133.46C1207.02 1126.51 1201.2 1111.73 1197.6 1103.45C1193.08 1093.05 1188.34 1082.76 1183.37 1072.58L1181.64 1066.92C1182.85 1066.05 1183.48 1065.49 1185.01 1065.21C1193.31 1063.65 1200.2 1060.43 1207.64 1056.56C1205.4 1050.33 1202.07 1043.47 1199.29 1037.36C1189.94 1040.88 1182.84 1046.01 1172.85 1049.27C1170.35 1042.9 1167.41 1036.77 1164.52 1030.57C1141.59 1042.18 1120.08 1051.32 1096.83 1062.02C1090.88 1064.7 1077.85 1070.97 1072.24 1072.93C1064.72 1076.92 1056.07 1080.43 1048.19 1083.79C1012.61 1099 977.235 1114.95 942.079 1131.11C928.059 1137.55 903.329 1146.67 891.184 1154.87C901.326 1173.76 893.343 1177.82 874.355 1172.55C865.307 1190.64 861.087 1190.13 850.903 1172.99C839.225 1177.29 833.278 1179.53 822.6 1186.15C834.92 1198.87 841.642 1207.62 845.943 1225.13C858.707 1277.1 821.385 1327 766.853 1324.37C757.967 1323.94 742.838 1322.17 735.061 1317.12C724.314 1312.76 716.132 1304.99 708.33 1296.69C701.78 1288.93 698.25 1282.2 694.911 1272.74C680.255 1277.23 672.11 1277.02 657.303 1274.22C654.097 1272.99 649.753 1271.26 646.751 1269.64C634.261 1262.95 624.961 1251.55 620.918 1237.97C613.642 1213.71 624.394 1180.23 650.475 1172.89C610.841 1092.16 706.67 1020.98 773.525 1076.05C792.659 1091.81 798.229 1115.87 799.811 1139.12C809.971 1134.84 821.624 1129.58 831.34 1124.54C822.026 1107.95 829.113 1100.39 846.734 1107.78C854.168 1088.35 863.405 1092.45 870.514 1108.96C874.923 1105.59 909.68 1090.17 917.247 1086.65C922.815 1083.55 952.851 1070.7 959.023 1068.44C963.869 1065.71 978.782 1059.53 984.232 1057.33C997.976 1049.48 1021.23 1040.65 1036.35 1033.94C1056.07 1025.04 1075.75 1016.04 1095.38 1006.93C1116.16 997.534 1141.91 986.24 1161.87 975.745C1141.4 965.869 1130.95 947.368 1115.6 935.013L1114.27 935.248C1109.23 942.954 1115.59 956.625 1110.54 965.077C1109.62 965.644 1108.76 966.504 1107.64 966.354C1086 963.443 1090.76 930.771 1082.19 923.211C1077.37 921.727 1068.34 922.311 1063.25 923.672C1029.08 932.791 995.469 944.419 961.652 954.725C939.839 962.928 915.87 967.64 894.365 976.411C879.549 982.455 869.683 992.532 852.689 996.051C812.377 986.014 825.972 942.323 838.555 916.351C842.099 909.037 844.905 901.214 848.599 893.83C851.677 887.677 861.751 876.178 857.751 869.847C851.781 870.41 833.372 879.143 826.97 881.752C817.672 885.542 811.878 887.727 801.795 889.472C793.786 897.2 784.482 903.579 775.639 910.457C758.419 923.85 740.436 936.315 723.212 949.73C716.538 954.928 710.226 957.779 703.674 963.922C698.625 980.445 699.897 984.212 687.027 998.014C674.864 1011.06 658.229 1010.74 648.62 1023.77C645.841 1035.26 637.556 1048.66 625.903 1052.62L624.989 1053.64C616.708 1062.98 606.804 1076.7 598.915 1086.79C575.542 1116.13 553.372 1146.4 532.46 1177.54C512.066 1207.69 496.667 1235.59 468.93 1259.54C461.912 1265.6 454.843 1277.42 448.524 1284.51C442.053 1292.46 434.655 1317.55 428.419 1319.95C416.941 1320.13 414.49 1299.27 414.831 1290.59C415.143 1283.12 416.612 1275.75 419.184 1268.73C424.441 1254.55 433.152 1240.56 440.466 1227.38C441.382 1225.73 441.514 1223.82 441.224 1222.01L439.961 1220.79C434.175 1220.94 429.288 1228.11 421.635 1222.82C419.996 1220.49 419.12 1217.36 420.019 1214.56C424.475 1200.69 431.264 1192.49 442.714 1184.73C458.408 1174.1 475.777 1177.54 488.932 1168.05C492.032 1165.82 504.149 1149.15 507.107 1145.07C526.296 1118.63 544.717 1091.36 563.469 1064.54L597.139 1016.19C602.688 1008.22 615.261 993.126 617.077 984.69C620.421 969.154 618.667 967.071 628.87 953.915C640.792 938.543 655.687 938.966 668.226 929.983C699.558 907.536 749.291 868.897 765.219 833.457C714.233 821.681 663.13 810.377 618.551 783.369C593.973 768.479 588.53 761.953 560.244 772.81C555.805 774.514 543.234 774.58 537.933 776.135C520.04 778.896 503.562 786.691 487.946 795.355C481.788 798.772 466.457 812.541 459.651 809.759C440.058 801.752 462.182 766.673 459.605 754.189C454.632 748.024 443.308 759.44 438.708 763.189C429.685 770.842 423.732 782.487 414.216 789.395C411.367 791.463 401.288 790.872 399.086 787.64C386.628 769.35 406.802 736.521 405.948 721.332C391.062 714.289 359.938 750.99 353.754 733.724C349.419 721.619 366.156 691.441 371.645 680.604C385.381 653.515 425.382 623.33 454.146 616.059C471.634 611.638 504.617 608.031 521.908 615.752C534.156 621.22 532.871 623.456 548.911 627.253Z"/><path fill="#8057AD" d="M870.514 1108.96C874.923 1105.59 909.68 1090.17 917.247 1086.65L916.531 1087.44C911.302 1093.3 910.184 1100.57 901.306 1099.16C895.62 1098.27 873.659 1110.03 870.514 1108.96Z"/><path fill="#000009" d="M648.62 1023.77C645.841 1035.26 637.556 1048.66 625.903 1052.62C631.321 1044.51 642.247 1030.5 648.62 1023.77Z"/><path fill="#8057AD" d="M657.303 1274.22C666.225 1270.05 684.971 1271.75 694.911 1272.74C680.255 1277.23 672.11 1277.02 657.303 1274.22Z"/><path fill="#8057AD" d="M708.33 1296.69C711.531 1297.14 712.099 1297.36 715.351 1296.64C718.199 1299.46 722.195 1303.17 724.604 1306.22C727.961 1310.71 732.824 1313.66 735.061 1317.12C724.314 1312.76 716.132 1304.99 708.33 1296.69Z"/><path fill="#8057AD" d="M1072.24 1072.93C1077.75 1065.29 1086.52 1055.79 1096.83 1062.02C1090.88 1064.7 1077.85 1070.97 1072.24 1072.93Z"/><path fill="#9868D1" d="M715.351 1296.64C718.366 1295.76 720.295 1294.89 723.404 1295.3C726.777 1298.11 725.198 1302.09 724.604 1306.22C722.195 1303.17 718.199 1299.46 715.351 1296.64Z"/><path d="M746.739 1209.93C759.258 1202.07 774.963 1201.28 788.209 1207.84C805.539 1216.42 814.886 1235.63 810.953 1254.57C807.019 1273.5 790.796 1287.39 771.48 1288.37C752.164 1289.34 734.626 1277.15 728.809 1258.71C722.991 1240.26 730.36 1220.21 746.739 1209.93Z"/><path fill="#1C053E" d="M746.739 1209.93C759.258 1202.07 774.963 1201.28 788.209 1207.84C781.41 1208.28 775.111 1207.45 767.989 1207.56C759.949 1207.68 753.983 1209.35 746.739 1209.93Z"/><path d="M714.777 1093.4C737.934 1090.22 759.303 1106.37 762.568 1129.51C765.833 1152.66 749.765 1174.08 726.632 1177.43C703.38 1180.8 681.819 1164.63 678.537 1141.37C675.255 1118.1 691.501 1096.6 714.777 1093.4Z"/><path d="M669.338 1196.84C682.954 1194.74 695.714 1204.02 697.913 1217.62C700.113 1231.22 690.928 1244.05 677.344 1246.35C663.619 1248.67 650.628 1239.37 648.405 1225.63C646.183 1211.88 655.579 1198.96 669.338 1196.84Z"/><path fill="#9868D1" d="M506.719 619.953C507.929 619.828 509.142 619.724 510.356 619.639C514.886 619.323 519.313 619.253 522.964 622.441C518.201 624.474 476.398 623.705 466.855 623.994C460.68 624.231 454.447 624.806 448.653 622.449C455.007 618.026 480.094 622.125 488.514 621.801C495.161 621.546 500.012 620.897 506.719 619.953Z"/><path fill="#9868D1" d="M743.798 1292.91C749.782 1292.34 791.433 1292.59 793.119 1294.57L791.327 1295.08C786.039 1296.45 746.153 1296.57 742.488 1294.22L743.798 1292.91Z"/><path fill="#9868D1" d="M820.282 1228.77L821.087 1229.64C823.389 1239.71 823.164 1253.42 821.068 1263.45C816.722 1258.86 819.439 1234.94 820.282 1228.77Z"/><path fill="#9868D1" d="M811.969 524.664C816.532 524.088 821.045 522.909 824.678 525.418L824.65 527.465C821.08 527.581 814.504 528.266 811.738 526.367L811.969 524.664Z"/></svg>